<?xml version="1.0" encoding="UTF-8"?><svg id="Logo_Arrow" xmlns="http://www.w3.org/2000/svg" viewBox="0 0 283.46 301.46"><defs><style>.cls-1{fill:#449dd7;}.cls-2{fill:#2e2d2c;}.cls-3{fill:#3c6a8a;}.cls-4{fill:#1d1d1b;}.cls-5{fill:#528fbf;}</style></defs><path class="cls-5" d="m242.68,206.09h-59.63c-5.28,0-10.16-2.82-12.79-7.39l-21.56-37.39-9.88-17.19,5.9-11.21,26.56-50.53,71.41,123.71Z"/><path class="cls-3" d="m171.27,82.38c-11.66,27.15-18.96,57.39-22.57,78.93l-9.88-17.19,5.9-11.21,26.56-50.53Z"/><path class="cls-1" d="m171.27,82.38l-26.56,50.53-5.9,11.21-28.45,54.08c-2.55,4.85-7.59,7.89-13.07,7.89h-57.84l64.4-122.46,5.9-11.21,19.7-37.33,6.71-12.76.22-.07.15.07,4.72,8.19,22.8,39.39,7.23,12.47Z"/><path class="cls-2" d="m65.2,245.44h-13.96l-2.83,6.98h-8.86l14.9-36.94h7.81l14.57,36.94h-8.86l-2.77-6.98Zm-2.33-6.53l-4.54-12.41-4.6,12.41h9.14Z"/><path class="cls-2" d="m93.94,215.48c4.71,0,7.64,1.55,9.41,3.21,1.55,1.5,3.21,4.15,3.21,8.25,0,2.33-.5,5.21-2.88,7.53-1.27,1.22-3.1,2.33-5.15,2.83l11.35,15.12h-10.41l-9.97-14.57v14.57h-8.53v-36.94h12.96Zm-4.43,16.78h1.94c1.55,0,3.66-.17,5.1-1.6.61-.61,1.38-1.77,1.38-3.6,0-2.11-1-3.21-1.72-3.77-1.38-1.05-3.6-1.16-4.71-1.16h-1.99v10.13Z"/><path class="cls-2" d="m127.55,215.48c4.71,0,7.64,1.55,9.41,3.21,1.55,1.5,3.21,4.15,3.21,8.25,0,2.33-.5,5.21-2.88,7.53-1.27,1.22-3.1,2.33-5.15,2.83l11.35,15.12h-10.41l-9.97-14.57v14.57h-8.53v-36.94h12.96Zm-4.43,16.78h1.94c1.55,0,3.66-.17,5.1-1.6.61-.61,1.38-1.77,1.38-3.6,0-2.11-1-3.21-1.72-3.77-1.38-1.05-3.6-1.16-4.71-1.16h-1.99v10.13Z"/><path class="cls-2" d="m180.93,220.02c3.49,3.38,5.76,8.25,5.76,13.96,0,4.93-1.77,9.97-5.76,13.84-3.43,3.32-8.09,5.43-14.29,5.43-6.92,0-11.63-2.77-14.4-5.43-3.54-3.32-5.76-8.31-5.76-13.73s2.38-10.69,5.7-14.01c2.49-2.49,7.09-5.43,14.46-5.43,5.76,0,10.58,1.77,14.29,5.37Zm-22.43,5.65c-1.61,1.55-3.27,4.26-3.27,8.36,0,3.38,1.11,6.09,3.38,8.31,2.38,2.27,5.04,3.05,7.92,3.05,3.77,0,6.43-1.38,8.2-3.16,1.44-1.38,3.21-3.99,3.21-8.25,0-3.82-1.55-6.65-3.21-8.31-1.83-1.77-4.76-3.16-8.14-3.16s-6.09,1.16-8.09,3.16Z"/><path class="cls-2" d="m196.49,215.48l7.86,24.48,7.86-24.48h5.87l7.86,24.48,7.86-24.48h8.86l-12.57,36.94h-7.2l-7.75-22.43-7.75,22.43h-7.2l-12.57-36.94h8.86Z"/><path class="cls-4" d="m46.36,271.88l6.01-10.07h.78l-6.47,10.64v6.52h-.64v-6.52l-6.47-10.64h.85l5.94,10.07Z"/><path class="cls-4" d="m67.77,271.68c0,1.49-.27,2.8-.8,3.94-.53,1.14-1.29,2.03-2.27,2.65-.98.62-2.11.94-3.4.94-1.93,0-3.5-.69-4.69-2.06-1.19-1.38-1.79-3.23-1.79-5.56v-2.48c0-1.48.27-2.79.8-3.94.53-1.15,1.29-2.03,2.28-2.66.99-.62,2.12-.94,3.39-.94s2.42.31,3.4.94c.99.62,1.75,1.51,2.28,2.66.53,1.15.8,2.46.8,3.93v2.57Zm-.64-2.59c0-2.07-.53-3.74-1.58-4.99-1.05-1.25-2.48-1.88-4.27-1.88s-3.18.62-4.23,1.87c-1.05,1.25-1.58,2.94-1.58,5.09v2.51c0,1.37.24,2.58.71,3.62.47,1.05,1.15,1.86,2.03,2.42.88.57,1.91.85,3.09.85,1.79,0,3.21-.62,4.26-1.87s1.57-2.96,1.57-5.12v-2.5Z"/><path class="cls-4" d="m83.25,261.81v11.62c0,1.81-.53,3.23-1.58,4.25-1.05,1.02-2.48,1.53-4.28,1.53s-3.23-.51-4.28-1.53c-1.05-1.02-1.58-2.42-1.59-4.2v-11.67h.64v11.6c0,1.59.48,2.85,1.43,3.77.95.93,2.22,1.39,3.8,1.39s2.84-.46,3.8-1.39c.95-.93,1.43-2.19,1.43-3.78v-11.59h.64Z"/><path class="cls-4" d="m94.32,271.63h-5.95v7.34h-.64v-17.16h5.47c1.72,0,3.09.44,4.11,1.33s1.53,2.09,1.53,3.62c0,1.17-.36,2.19-1.09,3.07-.73.88-1.65,1.42-2.78,1.63l4.59,7.34v.17h-.67l-4.56-7.34Zm-5.95-.64h5.41c1.32,0,2.39-.4,3.2-1.2.81-.8,1.22-1.81,1.22-3.03,0-1.34-.45-2.39-1.35-3.16-.9-.77-2.13-1.16-3.7-1.16h-4.79v8.55Z"/><path class="cls-4" d="m110.47,278.97h-.64v-17.16h.64v17.16Z"/><path class="cls-4" d="m126.73,262.45h-6.25v16.53h-.64v-16.53h-6.25v-.64h13.13v.64Z"/><path class="cls-4" d="m145.32,274.86c0-.73-.17-1.35-.51-1.86s-.88-.95-1.62-1.34c-.73-.39-1.84-.79-3.33-1.2s-2.6-.82-3.34-1.24-1.29-.9-1.63-1.45c-.35-.55-.52-1.22-.52-2,0-1.25.53-2.26,1.58-3.04,1.05-.77,2.42-1.16,4.11-1.16,1.1,0,2.09.21,2.96.64s1.55,1.03,2.03,1.8.72,1.65.72,2.62h-.64c0-1.28-.47-2.34-1.42-3.18-.94-.84-2.17-1.26-3.67-1.26s-2.73.34-3.66,1.01c-.93.67-1.4,1.51-1.4,2.53s.4,1.86,1.21,2.49c.81.63,2.15,1.18,4.01,1.67s3.23,1.04,4.09,1.68c1.1.81,1.65,1.89,1.65,3.25,0,.86-.24,1.63-.73,2.29s-1.18,1.18-2.07,1.54-1.9.54-3.02.54c-1.24,0-2.36-.21-3.35-.62s-1.74-1-2.23-1.76c-.5-.76-.75-1.66-.75-2.7h.64c0,1.41.53,2.5,1.58,3.28,1.05.78,2.42,1.17,4.11,1.17,1.5,0,2.74-.34,3.71-1.03s1.46-1.58,1.46-2.68Z"/><path class="cls-4" d="m161.47,271.68c0,1.49-.27,2.8-.8,3.94-.53,1.14-1.29,2.03-2.27,2.65-.98.62-2.11.94-3.4.94-1.93,0-3.5-.69-4.69-2.06-1.19-1.38-1.79-3.23-1.79-5.56v-2.48c0-1.48.27-2.79.8-3.94.53-1.15,1.29-2.03,2.28-2.66.99-.62,2.12-.94,3.39-.94s2.42.31,3.4.94c.99.62,1.75,1.51,2.28,2.66.53,1.15.8,2.46.8,3.93v2.57Zm-.64-2.59c0-2.07-.53-3.74-1.58-4.99-1.05-1.25-2.48-1.88-4.27-1.88s-3.18.62-4.23,1.87c-1.05,1.25-1.58,2.94-1.58,5.09v2.51c0,1.37.24,2.58.71,3.62.47,1.05,1.15,1.86,2.03,2.42.88.57,1.91.85,3.09.85,1.79,0,3.21-.62,4.26-1.87s1.57-2.96,1.57-5.12v-2.5Z"/><path class="cls-4" d="m166.05,278.34h8.81v.64h-9.45v-17.16h.65v16.53Z"/><path class="cls-4" d="m188.77,261.81v11.62c0,1.81-.53,3.23-1.58,4.25-1.05,1.02-2.48,1.53-4.28,1.53s-3.23-.51-4.28-1.53c-1.05-1.02-1.58-2.42-1.59-4.2v-11.67h.64v11.6c0,1.59.48,2.85,1.43,3.77.95.93,2.22,1.39,3.8,1.39s2.84-.46,3.8-1.39c.95-.93,1.43-2.19,1.43-3.78v-11.59h.64Z"/><path class="cls-4" d="m204.73,262.45h-6.25v16.53h-.64v-16.53h-6.25v-.64h13.13v.64Z"/><path class="cls-4" d="m208.85,278.97h-.64v-17.16h.64v17.16Z"/><path class="cls-4" d="m226.19,271.68c0,1.49-.27,2.8-.8,3.94-.53,1.14-1.29,2.03-2.27,2.65-.98.62-2.11.94-3.4.94-1.93,0-3.5-.69-4.69-2.06-1.19-1.38-1.79-3.23-1.79-5.56v-2.48c0-1.48.27-2.79.8-3.94.53-1.15,1.29-2.03,2.28-2.66.99-.62,2.12-.94,3.39-.94s2.42.31,3.4.94c.99.62,1.75,1.51,2.28,2.66.53,1.15.8,2.46.8,3.93v2.57Zm-.64-2.59c0-2.07-.53-3.74-1.58-4.99-1.05-1.25-2.48-1.88-4.27-1.88s-3.18.62-4.23,1.87c-1.05,1.25-1.58,2.94-1.58,5.09v2.51c0,1.37.24,2.58.71,3.62.47,1.05,1.15,1.86,2.03,2.42.88.57,1.91.85,3.09.85,1.79,0,3.21-.62,4.26-1.87s1.57-2.96,1.57-5.12v-2.5Z"/><path class="cls-4" d="m242.48,278.97h-.64l-11.08-16.08v16.08h-.65v-17.16h.65l11.08,16.04v-16.04h.64v17.16Z"/></svg>